<?xml version="1.0" ?>
<!-- Uploaded to: SVG Repo, www.svgrepo.com, Generator: SVG Repo Mixer Tools -->
<svg width="800px" height="800px" viewBox="0 0 91 91" id="Layer_1" version="1.1" xml:space="preserve" xmlns="http://www.w3.org/2000/svg" xmlns:xlink="http://www.w3.org/1999/xlink">
<style type="text/css">
	.st0{fill:#4E7A9E;}
</style>
<g>
<g>
<path class="st0" d="M70.8,29.1c-3.6,0-7.7-0.4-11.4,0c2.2-2.6,4.2-5.3,5.8-8.3c0.7-1.3-0.8-3.2-2.2-2.2c-4.7,3.5-8.7,7.9-12.9,12    c-1.1,1-1.2,3.2,0,4.2c2.3,1.9,4.6,3.8,6.9,5.6c11.3,8.4,11.4,1.3,10,0.1c-0.4-0.3-0.9-0.7-1.3-1c-1.5-1.2-3.1-2.4-4.6-3.6    c-0.4-0.3-0.7-0.6-1.1-0.8c3.6,0.3,7.4,0,10.8,0C74.7,35.2,74.7,29.1,70.8,29.1z"/>
<path class="st0" d="M30.8,37.9c0.1-3.4,0.2-6.7,0.2-10.1c0-2.7,0.4-5.8-0.6-8.3c-0.6-1.4-2.8-1.2-3.5,0c-1.3,2.3-1.1,5.7-1.4,8.3    c-0.3,3.4-0.5,6.7-0.8,10.1C24.3,41.8,30.7,41.9,30.8,37.9z"/>
<path class="st0" d="M64,54.5c-4,2-7.6,5.7-11.1,8.6c-1.7,1.4-3.4,2.8-5.1,4.2C47,67.9,46,69.1,45,69.5c-0.2,0.1-0.4,0.2-0.4,0.2    c-0.2-0.3-0.5-0.6-0.7-0.8c-4.7-5.7-11.3-12.6-18.7-14.6C23,53.8,21.4,56.5,23,58c3.5,3.4,7.7,6,11.2,9.4c1.8,1.8,3.4,3.8,5,5.8    c1.1,1.4,2.3,2.8,4.1,3.3c2,0.5,3.5-0.2,5-1.3c2.2-1.7,4.3-3.5,6.5-5.3c2.2-1.8,4.3-3.5,6.5-5.3c2.1-1.7,4.6-3.4,6.3-5.5    C69.5,56.5,67.1,53,64,54.5z"/>
</g>
</g>
</svg>